<?xml version="1.0" encoding="utf-8"?>
<!-- Generator: Adobe Illustrator 19.1.0, SVG Export Plug-In . SVG Version: 6.00 Build 0)  -->
<svg version="1.1" id="Layer_1" xmlns="http://www.w3.org/2000/svg" xmlns:xlink="http://www.w3.org/1999/xlink" x="0px" y="0px"
	 viewBox="0 0 122.7 8.8" enable-background="new 0 0 122.7 8.8" xml:space="preserve">
<g>
	<path fill="#FFFFFF" d="M0,8.7V0.1h1.8v8.6H0z"/>
	<path fill="#FFFFFF" d="M9.9,2.8c0,0.9-0.3,1.6-0.9,2.1S7.6,5.7,6.6,5.7H5.8v3H4V0.1h2.7c1,0,1.8,0.2,2.4,0.7S9.9,1.9,9.9,2.8z
		 M5.8,4.2h0.6c0.6,0,1-0.1,1.3-0.3s0.4-0.5,0.4-1c0-0.4-0.1-0.7-0.3-0.9S7.1,1.6,6.6,1.6H5.8V4.2z"/>
	<path fill="#FFFFFF" d="M16.6,6.3c0,0.8-0.3,1.4-0.8,1.8s-1.3,0.7-2.3,0.7c-0.9,0-1.7-0.2-2.4-0.5V6.6c0.6,0.3,1.1,0.4,1.5,0.5
		s0.8,0.2,1.1,0.2c0.4,0,0.7-0.1,0.9-0.2s0.3-0.4,0.3-0.7c0-0.2,0-0.3-0.1-0.4s-0.2-0.3-0.4-0.4S13.7,5.3,13.1,5
		c-0.5-0.2-0.9-0.5-1.2-0.7s-0.5-0.5-0.6-0.8s-0.2-0.7-0.2-1.1c0-0.8,0.3-1.4,0.8-1.8S13.1,0,14,0c0.4,0,0.9,0.1,1.3,0.2
		s0.8,0.3,1.3,0.4L15.9,2c-0.5-0.2-0.8-0.3-1.1-0.4s-0.6-0.1-0.9-0.1c-0.3,0-0.6,0.1-0.8,0.2s-0.3,0.4-0.3,0.6c0,0.2,0,0.3,0.1,0.4
		s0.2,0.2,0.4,0.3s0.5,0.3,1.2,0.6c0.8,0.4,1.3,0.8,1.6,1.2S16.6,5.8,16.6,6.3z"/>
	<path fill="#FFFFFF" d="M18.1,8.7V0.1h1.8v8.6H18.1z"/>
	<path fill="#FFFFFF" d="M22.1,8.7V0.1h1.8v7.1h3.5v1.5H22.1z"/>
	<path fill="#FFFFFF" d="M36.6,4.4c0,1.4-0.4,2.5-1.1,3.3s-1.7,1.1-3,1.1s-2.3-0.4-3-1.1s-1.1-1.9-1.1-3.3s0.4-2.5,1.1-3.3
		s1.7-1.1,3-1.1s2.3,0.4,3,1.1S36.6,3,36.6,4.4z M30.4,4.4c0,1,0.2,1.7,0.5,2.2s0.9,0.7,1.6,0.7c1.4,0,2.2-1,2.2-2.9
		c0-1.9-0.7-2.9-2.2-2.9c-0.7,0-1.3,0.2-1.6,0.7S30.4,3.4,30.4,4.4z"/>
	<path fill="#FFFFFF" d="M46,8.7h-2.3L40,2.2h-0.1C40,3.4,40,4.2,40,4.7v4h-1.6V0.1h2.3l3.7,6.4h0c-0.1-1.1-0.1-1.9-0.1-2.4V0.1H46
		V8.7z"/>
	<path fill="#FFFFFF" d="M56.3,6.3c0,0.8-0.3,1.4-0.8,1.8s-1.3,0.7-2.3,0.7c-0.9,0-1.7-0.2-2.4-0.5V6.6c0.6,0.3,1.1,0.4,1.5,0.5
		s0.8,0.2,1.1,0.2c0.4,0,0.7-0.1,0.9-0.2s0.3-0.4,0.3-0.7c0-0.2,0-0.3-0.1-0.4S54.2,5.7,54,5.6S53.5,5.3,52.9,5
		c-0.5-0.2-0.9-0.5-1.2-0.7s-0.5-0.5-0.6-0.8s-0.2-0.7-0.2-1.1c0-0.8,0.3-1.4,0.8-1.8S52.9,0,53.8,0c0.4,0,0.9,0.1,1.3,0.2
		s0.8,0.3,1.3,0.4L55.7,2c-0.5-0.2-0.8-0.3-1.1-0.4S54,1.5,53.7,1.5c-0.3,0-0.6,0.1-0.8,0.2s-0.3,0.4-0.3,0.6c0,0.2,0,0.3,0.1,0.4
		s0.2,0.2,0.4,0.3s0.5,0.3,1.2,0.6c0.8,0.4,1.3,0.8,1.6,1.2S56.3,5.8,56.3,6.3z"/>
	<path fill="#FFFFFF" d="M63,6.3c0,0.8-0.3,1.4-0.8,1.8s-1.3,0.7-2.3,0.7c-0.9,0-1.7-0.2-2.4-0.5V6.6c0.6,0.3,1.1,0.4,1.5,0.5
		s0.8,0.2,1.1,0.2c0.4,0,0.7-0.1,0.9-0.2s0.3-0.4,0.3-0.7c0-0.2,0-0.3-0.1-0.4s-0.2-0.3-0.4-0.4S60.1,5.3,59.5,5
		c-0.5-0.2-0.9-0.5-1.2-0.7s-0.5-0.5-0.6-0.8s-0.2-0.7-0.2-1.1c0-0.8,0.3-1.4,0.8-1.8S59.5,0,60.4,0c0.4,0,0.9,0.1,1.3,0.2
		s0.8,0.3,1.3,0.4L62.3,2c-0.5-0.2-0.8-0.3-1.1-0.4s-0.6-0.1-0.9-0.1c-0.3,0-0.6,0.1-0.8,0.2s-0.3,0.4-0.3,0.6c0,0.2,0,0.3,0.1,0.4
		s0.2,0.2,0.4,0.3s0.5,0.3,1.2,0.6c0.8,0.4,1.3,0.8,1.6,1.2S63,5.8,63,6.3z"/>
	<path fill="#FFFFFF" d="M72.3,4.4c0,1.4-0.4,2.5-1.1,3.3s-1.7,1.1-3,1.1s-2.3-0.4-3-1.1s-1.1-1.9-1.1-3.3s0.4-2.5,1.1-3.3
		s1.7-1.1,3-1.1s2.3,0.4,3,1.1S72.3,3,72.3,4.4z M66,4.4c0,1,0.2,1.7,0.5,2.2s0.9,0.7,1.6,0.7c1.4,0,2.2-1,2.2-2.9
		c0-1.9-0.7-2.9-2.2-2.9c-0.7,0-1.3,0.2-1.6,0.7S66,3.4,66,4.4z"/>
	<path fill="#FFFFFF" d="M83.1,2.8c0,0.9-0.3,1.6-0.9,2.1s-1.4,0.7-2.5,0.7H79v3h-1.8V0.1h2.7c1,0,1.8,0.2,2.4,0.7
		S83.1,1.9,83.1,2.8z M79,4.2h0.6c0.6,0,1-0.1,1.3-0.3s0.4-0.5,0.4-1c0-0.4-0.1-0.7-0.3-0.9s-0.6-0.3-1.1-0.3H79V4.2z"/>
	<path fill="#FFFFFF" d="M92.5,4.4c0,1.4-0.4,2.5-1.1,3.3s-1.7,1.1-3,1.1s-2.3-0.4-3-1.1s-1.1-1.9-1.1-3.3s0.4-2.5,1.1-3.3
		s1.7-1.1,3-1.1s2.3,0.4,3,1.1S92.5,3,92.5,4.4z M86.2,4.4c0,1,0.2,1.7,0.5,2.2s0.9,0.7,1.6,0.7c1.4,0,2.2-1,2.2-2.9
		c0-1.9-0.7-2.9-2.2-2.9c-0.7,0-1.3,0.2-1.6,0.7S86.2,3.4,86.2,4.4z"/>
	<path fill="#FFFFFF" d="M96.1,5.4v3.3h-1.8V0.1h2.5c1.2,0,2,0.2,2.6,0.6s0.8,1.1,0.8,1.9c0,0.5-0.1,1-0.4,1.3S99.1,4.7,98.6,5
		c1.3,1.9,2.1,3.2,2.5,3.7h-2l-2-3.3H96.1z M96.1,3.9h0.6c0.6,0,1-0.1,1.3-0.3s0.4-0.5,0.4-0.9c0-0.4-0.1-0.7-0.4-0.9
		s-0.7-0.3-1.3-0.3h-0.6V3.9z"/>
	<path fill="#FFFFFF" d="M105.5,8.7h-1.8V1.6h-2.3V0.1h6.5v1.5h-2.3V8.7z"/>
	<path fill="#FFFFFF" d="M114.4,8.7l-0.6-2h-3.1l-0.6,2h-2l3-8.6h2.2l3,8.6H114.4z M113.3,5.1c-0.6-1.8-0.9-2.9-1-3.1
		s-0.1-0.4-0.2-0.6c-0.1,0.5-0.5,1.7-1.1,3.7H113.3z"/>
	<path fill="#FFFFFF" d="M117.4,8.7V0.1h1.8v7.1h3.5v1.5H117.4z"/>
</g>
</svg>
